<?xml version="1.0" encoding="UTF-8"?>
<svg id="Layer_2" data-name="Layer 2" xmlns="http://www.w3.org/2000/svg" viewBox="0 0 1587.6 870.58">
  <defs>
    <style>
      .cls-1, .cls-2 {
        stroke-width: 0px;
      }

      .cls-2 {
        fill: #fff;
      }
    </style>
  </defs>
  <g id="Layer_1-2" data-name="Layer 1">
    <g>
      <path class="cls-1" d="m793.95,870.58c-2.51-3.06-3.66-4.72-5.06-6.13-43.7-43.68-87.45-87.32-131.08-131.07-2.94-2.95-5.83-4.16-10.01-4.16-140.49.11-280.99.06-421.48.1-55.94.01-105.69-17.3-148.14-53.81-43.1-37.07-68.81-83.96-76.13-140.48-1.38-10.69-1.93-21.55-1.95-32.33C-.05,410.16.05,317.61,0,225.07c-.03-56.52,17.97-106.55,55.45-148.86C97.4,28.85,150.36,3.36,213.84.36c6.65-.31,13.33-.33,19.99-.33,375.98-.01,751.97-.06,1127.95.03,68.28.02,125.51,25.6,170.56,76.75,36.73,41.7,54.81,90.91,54.85,146.54.05,94.37,1.04,188.76-.28,283.11-1.27,91.14-44.6,157.73-124.96,200.08-31.15,16.41-65.09,22.78-100.25,22.78-140.66-.01-281.32.01-421.98-.09-4.34,0-7.35,1.25-10.42,4.33-43.74,43.88-87.62,87.62-131.42,131.44-1.28,1.28-2.13,2.99-3.93,5.59Z"/>
      <path class="cls-2" d="m127.01,364.29c0-36.11,0-72.22,0-108.32,0-20.78,13.17-33.92,34.05-33.91,22.32.02,44.66-.38,66.97.33,40.57,1.3,78.22,33.21,86.8,73.07,1.46,6.78,2.03,13.79,2.48,20.72.48,7.38-2.53,13.72-6.19,20.11-4.57,7.97-8.04,16.59-11.73,25.03-.32.72.95,2.59,1.93,3.36,17.17,13.37,27.8,30.63,31.15,52.18,1.85,11.88,1.08,23.22-7.61,32.78-1.38,1.51-1.99,3.76-2.79,5.74-7.91,19.59-19.99,35.61-39.27,45.31-9.38,4.72-19.46,6.58-29.94,6.57-30.82-.03-61.65.09-92.47-.05-20.24-.09-33.37-13.45-33.38-33.61-.02-36.44,0-72.88,0-109.32Zm63.81-78.3v62.39c12.15,0,24,.75,35.7-.18,15.84-1.27,27.17-14.43,27.48-30.29.32-16.09-10.17-29.96-25.87-31.66-12.15-1.31-24.56-.26-37.32-.26Zm-.04,157.55c.71.19,1.17.41,1.63.41,20.62.03,41.25.18,61.87-.02,8.84-.08,15.47-7.03,15.7-15.58.23-8.61-6.4-15.69-15.56-16.22-5.14-.3-10.31-.09-15.46-.09-15.95,0-31.9,0-48.18,0v31.5Z"/>
      <path class="cls-2" d="m508.01,412.19h-63.56c0,2.06,0,3.98,0,5.9,0,18.64.14,37.27-.05,55.91-.18,17.84-10.22,30.26-26.34,33.17-18.73,3.38-36.44-10.82-36.98-29.85-.25-8.81-.07-17.64-.07-26.45,0-64.89,0-129.78,0-194.68,0-21.15,13.03-34.13,34.3-34.13,40.82-.01,81.64-.04,122.46.02,16.56.02,28.75,8.96,32.57,23.93.81,3.17.97,6.58.97,9.88.05,72.55.06,145.09.03,217.64,0,18.05-9.95,30.65-26.31,33.65-18.88,3.45-36.76-11.08-36.96-30.35-.2-19.63-.05-39.27-.06-58.9,0-1.79,0-3.57,0-5.72Zm-.18-126.72h-63.04v63.02h63.04v-63.02Z"/>
      <path class="cls-2" d="m1333.62,285.21v31.72c1.74.08,3.49.23,5.24.23,29.82.01,59.65-.01,89.47.02,17.14.02,30.16,11.57,32.27,28.55,1.89,15.18-8.47,29.8-24.25,33.72-3.66.91-7.59.94-11.4.95-28.32.07-56.65.04-84.97.04-1.97,0-3.94,0-6.3,0v63.58c1.94,0,3.72,0,5.49,0,29.66,0,59.31-.02,88.97,0,18.15.01,32.04,13.17,32.63,30.84.58,17.26-12.96,31.84-31.15,32.2-26.15.52-52.31.14-78.47.24-16.32.06-32.64.17-48.96.48-18.98.36-34.67-16.7-32.51-35.54.25-2.14.3-4.31.3-6.47.02-35.77.01-71.55.01-107.32,0-31.92,0-63.83,0-95.75,0-4.47-.56-9-.02-13.4,2.14-17.32,18.06-29.47,35.51-27.47,1.98.23,3.99.24,5.98.24,38.49.01,76.97-.04,115.46.03,16.26.03,27.93,8.22,32.31,22.34,6.28,20.23-8.72,40.74-29.93,40.78-29.99.06-59.98.02-89.97.02-1.8,0-3.6,0-5.74,0Z"/>
      <path class="cls-2" d="m1111.01,444c2.68,0,4.5,0,6.32,0,29.65,0,59.31-.02,88.96,0,17.81.02,31.52,13.16,32.14,30.71.61,17.32-12.51,31.32-30.41,32.39-2.33.14-4.66.14-6.99.15-40.47.16-80.95.25-121.42.51-18.42.12-34.02-16.6-32.35-34.94.24-2.64.39-5.31.39-7.96.02-69.54.09-139.09-.04-208.63-.03-14.1,5.13-24.99,17.92-31.42,20.78-10.45,45.43,4.77,45.46,28.03.08,61.56.03,123.12.03,184.68v6.49Z"/>
      <path class="cls-2" d="m666.74,285.21c-11.31,0-21.79.03-32.28,0-17.25-.06-31-13.28-31.47-30.21-.49-17.87,12.16-32.24,29.82-32.72,19.81-.54,39.64-.24,59.46-.22,24.12.02,48.26-.22,72.37.33,17.1.39,29.86,15.18,29.35,32.72-.48,16.46-14.51,30.02-31.23,30.1-10.64.05-21.28,0-32.76,0,0,2.24,0,4.16,0,6.07,0,61.39,0,122.77,0,184.16,0,17.06-11.5,29.96-28.61,32.15-15.07,1.93-29.89-8.6-33.67-24.29-.92-3.82-.95-7.91-.95-11.88-.06-59.72-.04-119.45-.04-179.17,0-2.13,0-4.25,0-7.04Z"/>
      <path class="cls-2" d="m889.01,285.21c-11.3,0-21.78.02-32.26,0-17.32-.05-31.35-13.61-31.73-30.62-.39-17.32,12.56-31.7,29.91-32.25,16.97-.53,33.97-.26,50.96-.27,25.96-.03,51.92-.23,77.88.06,24.93.28,40.21,24.87,28.81,46.24-5.76,10.8-15.12,16.58-27.51,16.8-10.65.19-21.3.04-32.73.04v6.58c0,60.06-.04,120.11.04,180.17.01,9.64-1.74,18.48-8.69,25.7-9.29,9.65-22.5,12.63-34.79,7.83-11.97-4.68-19.89-16.36-19.9-29.58-.02-61.39-.01-122.77-.01-184.16v-6.53Z"/>
    </g>
  </g>
</svg>