<?xml version="1.0" encoding="UTF-8"?>
<svg id="Layer_2" data-name="Layer 2" xmlns="http://www.w3.org/2000/svg" viewBox="0 0 89.58 91.11">
  <defs>
    <style>
      .cls-1 {
        stroke-width: 0px;
      }
    </style>
  </defs>
  <g id="Layer_1-2" data-name="Layer 1">
    <g>
      <path class="cls-1" d="m54.47,91.11c-2.42-6.87-1.13-10.59,3.82-15.18,1.78-1.65,2.21-4.86,3.01-7.44.63-2.03.88-4.17,1.37-6.6-5.8-.77-7.53-4.25-7.34-9.68.13-3.73-.95-7.5-1.41-11.26-.27-2.16-1.5-5.13,2.28-5.16,2.84-.02,7.12-1.99,7.4,3.64.03.6.38,1.19,1.01,2.3-.06-7.72,5.24-6.47,9.36-5.83,1.72.27,3.05,2.97,4.33,4.34.34-3.48,2.87-5.34,7.59-4.64,2.64.39,3.36,1.46,3.06,3.89-.68,5.55-.79,11.23-2.11,16.62-.6,2.47-3.51,4.37-6.32,7.63,1.29,3.82.1,10.1,6.31,14.54,3.98,2.84,2.89,8.31,1.3,12.84h-33.66Zm3.26-4.27h27.23c.32-6.78-.4-7.58-6.6-7.61-4.76-.02-9.51-.03-14.27,0-6.12.03-6.86.92-6.35,7.6Zm6.33-11.95h14.5c-.87-4.09-1.38-7.85-2.59-11.36-.36-1.05-2.67-2-4.07-1.98-1.81.03-4.75.65-5.18,1.78-1.38,3.6-1.82,7.55-2.66,11.56Zm-4.99-35.23c-.39.14-.77.29-1.16.43.4,3.02.79,6.05,1.21,9.23h24.35c.38-3.19.75-6.24,1.12-9.3-.37-.17-.74-.33-1.12-.5-.91,3.74-2.08,7.64-6.74,5.88-1.98-.75-3.29-3.25-5.58-5.67-.26.31-1.72,1.27-1.72,2.23-.02,3.34-1.98,3.29-4.49,3.72-4.94.84-4.49-3.44-5.88-6.02Zm23.98,14.06h-23.45q.74,3.67,4.77,3.73,17.73.25,18.68-3.73Z"/>
      <path class="cls-1" d="m57.5,25.85c-5.32-.05-10.64-.11-15.97-.16l.14.15v-13.59h-15.98v13.59l.14-.14h-13.59v15.98h13.59l-.14-.14c.05,5.32.1,10.64.15,15.96-4.53,0-9.06,0-13.62,0v13.45h13.48v-13.59c5.32.05,10.65.1,15.97.16l-.15-.14v13.79h14.35c.15.54.29,1.08.44,1.62-2.35.83-4.7,2.32-7.06,2.37-12.18.24-24.38,0-36.57.18-3.68.06-4.84-1.18-4.81-4.83.14-19.27.14-38.55,0-57.82-.03-3.68,1.17-4.84,4.83-4.81,19.27.14,38.55.14,57.82,0,3.68-.03,4.96,1.16,4.81,4.83-.24,6.07-.06,12.17-.06,18.62h-17.58c-.1-1.81-.21-3.72-.32-5.62,4.53,0,9.06,0,13.62,0v-13.45h-13.48v13.59Z"/>
      <path class="cls-1" d="m83.18,31.16c-3.54,1.35-4.02-.25-3.99-2.89.09-7.89.03-15.77.03-23.97H4.25v74.67h45.09c.27.58.53,1.16.8,1.74-1.22.83-2.44,2.36-3.67,2.37-13.68.17-27.37.09-41.05.12-3.7,0-5.41-1.73-5.41-5.43C.04,53.7.04,29.63,0,5.55,0,1.53,1.93,0,5.8,0c23.91.05,47.82.05,71.72,0,3.95,0,5.72,1.73,5.68,5.68-.08,8.4-.02,16.8-.02,25.49Z"/>
      <path class="cls-1" d="m41.54,25.69c0,5.33,0,10.66,0,15.98l.15-.14h-15.98l.14.14v-15.98l-.14.14h15.98l-.14-.15Z"/>
      <path class="cls-1" d="m41.53,41.68h8.65c.55,5.3,1.07,10.23,1.64,15.71-3.88,0-7.08,0-10.29,0,0,0,.15.14.15.14v-15.98l-.15.14Z"/>
    </g>
  </g>
</svg>