<?xml version="1.0"?>
<svg xmlns="http://www.w3.org/2000/svg" viewBox="0 0 24 24">
    <path d="M 5 2 C 3.895 2 3 2.895 3 4 L 3 11 C 3 11.659 3.3205 12.22875 3.8125 12.59375 C 4.5425 11.62475 5.694 11 7 11 L 17 11 C 18.306 11 19.4575 11.62475 20.1875 12.59375 C 20.6795 12.22875 21 11.659 21 11 L 21 4 C 21 2.895 20.105 2 19 2 L 5 2 z M 15 3 L 15 6 L 12 6 L 12 3.4375 L 15 3 z M 11 3.5625 L 11 6 L 8 6 L 8 4 L 11 3.5625 z M 8 7 L 11 7 L 11 9.4375 L 8 9 L 8 7 z M 12 7 L 15 7 L 15 10 L 12 9.5625 L 12 7 z M 7 12 C 5.593 12 4.38675 12.96725 4.09375 14.28125 C 3.80075 15.59525 3.0625 19.5625 3.0625 19.5625 C 3.0315 19.7035 3 19.85 3 20 C 3 21.105 3.895 22 5 22 C 5.858 22 6.59 21.4465 6.875 20.6875 L 8 17.8125 C 9.163 17.3995 10 16.305 10 15 C 10 13.343 8.657 12 7 12 z M 9.625 12 C 10.464 12.733 11 13.798 11 15 C 11 15.411 10.9275 15.8145 10.8125 16.1875 C 11.5155 16.4975 12.4845 16.4975 13.1875 16.1875 C 13.0725 15.8145 13 15.411 13 15 C 13 13.798 13.536 12.733 14.375 12 L 9.625 12 z M 17 12 C 15.343 12 14 13.343 14 15 C 14 16.305 14.837 17.3995 16 17.8125 L 17.125 20.6875 C 17.41 21.4465 18.142 22 19 22 C 20.105 22 21 21.105 21 20 C 21 19.85 20.9685 19.7035 20.9375 19.5625 C 20.9375 19.5625 20.19925 15.59525 19.90625 14.28125 C 19.61325 12.96725 18.407 12 17 12 z M 10 17 C 9.4477153 17 9 17.447715 9 18 C 9 18.552285 9.4477153 19 10 19 C 10.552285 19 11 18.552285 11 18 C 11 17.447715 10.552285 17 10 17 z M 14 17 C 13.447715 17 13 17.447715 13 18 C 13 18.552285 13.447715 19 14 19 C 14.552285 19 15 18.552285 15 18 C 15 17.447715 14.552285 17 14 17 z"/>
</svg>
